REM DIRINDEX 1\5,1\2\6,1\2\7,1\3\8,1\3\9,1\4\10,1\4\11,1\4\12
REM DIRNAME cjc026,folder01,folder02,folder03,folder04,folder05,folder06,folder07,folder08,folder09,folder10,folder11
TITLE ""
FILE "EJE_DB3000_5th_6C_27.mp3" MP3
  TRACK 01 AUDIO
    TITLE "0:"
    INDEX 01 00:00:00
  TRACK 02 AUDIO
    TITLE "10:cjc026_11187"
    INDEX 01 00:00:08
  TRACK 03 AUDIO
    TITLE "0:"
    INDEX 01 00:02:60
  TRACK 04 AUDIO
    TITLE "11:cjc026_11188"
    INDEX 01 00:03:20
  TRACK 05 AUDIO
    TITLE "0:"
    INDEX 01 00:04:64
  TRACK 06 AUDIO
    TITLE "12:cjc026_11189"
    INDEX 01 00:05:27
  TRACK 07 AUDIO
    TITLE "0:"
    INDEX 01 00:08:04
  TRACK 08 AUDIO
    TITLE "10:cjc026_11190"
    INDEX 01 00:08:39
  TRACK 09 AUDIO
    TITLE "0:"
    INDEX 01 00:09:64
  TRACK 10 AUDIO
    TITLE "11:cjc026_11191"
    INDEX 01 00:10:24
  TRACK 11 AUDIO
    TITLE "0:"
    INDEX 01 00:11:71
  TRACK 12 AUDIO
    TITLE "12:cjc026_11192"
    INDEX 01 00:12:31
  TRACK 13 AUDIO
    TITLE "0:"
    INDEX 01 00:13:56
  TRACK 14 AUDIO
    TITLE "10:cjc026_11193"
    INDEX 01 00:14:16
  TRACK 15 AUDIO
    TITLE "0:"
    INDEX 01 00:15:27
  TRACK 16 AUDIO
    TITLE "11:cjc026_11194"
    INDEX 01 00:15:65
  TRACK 17 AUDIO
    TITLE "0:"
    INDEX 01 00:17:04
  TRACK 18 AUDIO
    TITLE "12:cjc026_11195"
    INDEX 01 00:17:42
  TRACK 19 AUDIO
    TITLE "0:"
    INDEX 01 00:18:54
  TRACK 20 AUDIO
    TITLE "10:cjc026_11196"
    INDEX 01 00:19:14
  TRACK 21 AUDIO
    TITLE "0:"
    INDEX 01 00:20:33
  TRACK 22 AUDIO
    TITLE "11:cjc026_11197"
    INDEX 01 00:20:68
  TRACK 23 AUDIO
    TITLE "0:"
    INDEX 01 00:22:18
  TRACK 24 AUDIO
    TITLE "12:cjc026_11198"
    INDEX 01 00:22:53
  TRACK 25 AUDIO
    TITLE "0:"
    INDEX 01 00:23:73
  TRACK 26 AUDIO
    TITLE "10:cjc026_11199"
    INDEX 01 00:24:33
  TRACK 27 AUDIO
    TITLE "0:"
    INDEX 01 00:25:63
  TRACK 28 AUDIO
    TITLE "11:cjc026_11200"
    INDEX 01 00:26:23
  TRACK 29 AUDIO
    TITLE "0:"
    INDEX 01 00:27:54
  TRACK 30 AUDIO
    TITLE "12:cjc026_11201"
    INDEX 01 00:28:16
  TRACK 31 AUDIO
    TITLE "0:"
    INDEX 01 00:29:47
  TRACK 32 AUDIO
    TITLE "10:cjc026_11202"
    INDEX 01 00:30:07
  TRACK 33 AUDIO
    TITLE "0:"
    INDEX 01 00:31:21
  TRACK 34 AUDIO
    TITLE "11:cjc026_11203"
    INDEX 01 00:31:59
  TRACK 35 AUDIO
    TITLE "0:"
    INDEX 01 00:34:01
  TRACK 36 AUDIO
    TITLE "12:cjc026_11204"
    INDEX 01 00:34:42
  TRACK 37 AUDIO
    TITLE "0:"
    INDEX 01 00:35:53
  TRACK 38 AUDIO
    TITLE "10:cjc026_11205"
    INDEX 01 00:36:13
  TRACK 39 AUDIO
    TITLE "0:"
    INDEX 01 00:37:38
  TRACK 40 AUDIO
    TITLE "11:cjc026_11206"
    INDEX 01 00:37:73
  TRACK 41 AUDIO
    TITLE "0:"
    INDEX 01 00:39:31
  TRACK 42 AUDIO
    TITLE "12:cjc026_11207"
    INDEX 01 00:39:69
  TRACK 43 AUDIO
    TITLE "0:"
    INDEX 01 00:41:19
  TRACK 44 AUDIO
    TITLE "10:cjc026_11208"
    INDEX 01 00:41:54
  TRACK 45 AUDIO
    TITLE "0:"
    INDEX 01 00:43:01
  TRACK 46 AUDIO
    TITLE "11:cjc026_11209"
    INDEX 01 00:43:36
  TRACK 47 AUDIO
    TITLE "0:"
    INDEX 01 00:45:05
  TRACK 48 AUDIO
    TITLE "12:cjc026_11210"
    INDEX 01 00:45:40
  TRACK 49 AUDIO
    TITLE "0:"
    INDEX 01 00:46:62
  TRACK 50 AUDIO
    TITLE "10:cjc026_11211"
    INDEX 01 00:47:22
  TRACK 51 AUDIO
    TITLE "0:"
    INDEX 01 00:48:39
  TRACK 52 AUDIO
    TITLE "11:cjc026_11212"
    INDEX 01 00:49:05
  TRACK 53 AUDIO
    TITLE "0:"
    INDEX 01 00:50:21
  TRACK 54 AUDIO
    TITLE "12:cjc026_11213"
    INDEX 01 00:50:59
  TRACK 55 AUDIO
    TITLE "0:"
    INDEX 01 00:52:04
  TRACK 56 AUDIO
    TITLE "10:cjc026_11214"
    INDEX 01 00:52:39
  TRACK 57 AUDIO
    TITLE "0:"
    INDEX 01 00:53:61
  TRACK 58 AUDIO
    TITLE "11:cjc026_11215"
    INDEX 01 00:54:21
  TRACK 59 AUDIO
    TITLE "0:"
    INDEX 01 00:55:65
  TRACK 60 AUDIO
    TITLE "12:cjc026_11216"
    INDEX 01 00:56:28
  TRACK 61 AUDIO
    TITLE "0:"
    INDEX 01 00:57:50
  TRACK 62 AUDIO
    TITLE "10:cjc026_11217"
    INDEX 01 00:58:10
  TRACK 63 AUDIO
    TITLE "0:"
    INDEX 01 01:00:60
  TRACK 64 AUDIO
    TITLE "11:cjc026_11218"
    INDEX 01 01:01:20
  TRACK 65 AUDIO
    TITLE "0:"
    INDEX 01 01:02:61
  TRACK 66 AUDIO
    TITLE "12:cjc026_11219"
    INDEX 01 01:03:21
  TRACK 67 AUDIO
    TITLE "0:"
    INDEX 01 01:05:68
  TRACK 68 AUDIO
    TITLE "10:cjc026_11220"
    INDEX 01 01:06:28
  TRACK 69 AUDIO
    TITLE "0:"
    INDEX 01 01:08:00
  TRACK 70 AUDIO
    TITLE "11:cjc026_11221"
    INDEX 01 01:08:30
  TRACK 71 AUDIO
    TITLE "0:"
    INDEX 01 01:10:01
  TRACK 72 AUDIO
    TITLE "12:cjc026_11222"
    INDEX 01 01:10:33
  TRACK 73 AUDIO
    TITLE "0:"
    INDEX 01 01:12:05
  TRACK 74 AUDIO
    TITLE "10:cjc026_11223"
    INDEX 01 01:12:40
  TRACK 75 AUDIO
    TITLE "0:"
    INDEX 01 01:13:68
  TRACK 76 AUDIO
    TITLE "11:cjc026_11224"
    INDEX 01 01:14:25
  TRACK 77 AUDIO
    TITLE "0:"
    INDEX 01 01:16:21
  TRACK 78 AUDIO
    TITLE "12:cjc026_11225"
    INDEX 01 01:16:56
  TRACK 79 AUDIO
    TITLE "0:"
    INDEX 01 01:18:09
